<?xml version="1.0" encoding="UTF-8" standalone="no"?>
<!DOCTYPE svg PUBLIC "-//W3C//DTD SVG 1.1//EN"
 "http://www.w3.org/Graphics/SVG/1.1/DTD/svg11.dtd">
<!-- Generated by graphviz version 2.46.1 (0)
 -->
<!-- Pages: 1 -->
<svg width="1668pt" height="116pt"
 viewBox="0.00 0.00 1668.00 116.00" xmlns="http://www.w3.org/2000/svg" xmlns:xlink="http://www.w3.org/1999/xlink">
<g id="graph0" class="graph" transform="scale(1 1) rotate(0) translate(72 80)">
<polygon fill="#ffffff" stroke="transparent" points="-72,36 -72,-80 1596,-80 1596,36 -72,36"/>
<!-- /outputs/324 -->
<g id="node1" class="node">
<title>/outputs/324</title>
<polygon fill="#e8e8e8" stroke="#000000" points="248,-40 178,-40 178,-4 248,-4 248,-40"/>
<text text-anchor="start" x="186" y="-19" font-family="Times" font-size="10.00" fill="#000000">MaxPool3x3</text>
</g>
<!-- 7518750240727800512 -->
<g id="node6" class="node">
<title>7518750240727800512</title>
<polygon fill="#e8e8e8" stroke="#000000" points="373,-40 284,-40 284,-4 373,-4 373,-40"/>
<text text-anchor="start" x="292.5" y="-19" font-family="Times" font-size="10.00" fill="#000000">Bottleneck Block</text>
</g>
<!-- /outputs/324&#45;&gt;7518750240727800512 -->
<g id="edge4" class="edge">
<title>/outputs/324&#45;&gt;7518750240727800512</title>
<path fill="none" stroke="#000000" d="M248.05,-22C256.13,-22 264.93,-22 273.65,-22"/>
<polygon fill="#000000" stroke="#000000" points="273.79,-25.5 283.79,-22 273.79,-18.5 273.79,-25.5"/>
</g>
<!-- /outputs/493 -->
<g id="node2" class="node">
<title>/outputs/493</title>
<polygon fill="#e8e8e8" stroke="#000000" points="1344,-40 1248,-40 1248,-4 1344,-4 1344,-40"/>
<text text-anchor="start" x="1256" y="-19" font-family="Times" font-size="10.00" fill="#000000">GlobalAveragePool</text>
</g>
<!-- /outputs/494 -->
<g id="node3" class="node">
<title>/outputs/494</title>
<polygon fill="#e8e8e8" stroke="#000000" points="1434,-40 1380,-40 1380,-4 1434,-4 1434,-40"/>
<text text-anchor="start" x="1392" y="-19" font-family="Times" font-size="10.00" fill="#000000">Flatten</text>
</g>
<!-- /outputs/493&#45;&gt;/outputs/494 -->
<g id="edge1" class="edge">
<title>/outputs/493&#45;&gt;/outputs/494</title>
<path fill="none" stroke="#000000" d="M1344.18,-22C1352.66,-22 1361.38,-22 1369.5,-22"/>
<polygon fill="#000000" stroke="#000000" points="1369.76,-25.5 1379.76,-22 1369.76,-18.5 1369.76,-25.5"/>
</g>
<!-- /outputs/495 -->
<g id="node4" class="node">
<title>/outputs/495</title>
<polygon fill="#e8e8e8" stroke="#000000" points="1524,-40 1470,-40 1470,-4 1524,-4 1524,-40"/>
<text text-anchor="start" x="1484" y="-19" font-family="Times" font-size="10.00" fill="#000000">Linear</text>
</g>
<!-- /outputs/494&#45;&gt;/outputs/495 -->
<g id="edge2" class="edge">
<title>/outputs/494&#45;&gt;/outputs/495</title>
<path fill="none" stroke="#000000" d="M1434.4,-22C1442.39,-22 1451.31,-22 1459.82,-22"/>
<polygon fill="#000000" stroke="#000000" points="1459.92,-25.5 1469.92,-22 1459.92,-18.5 1459.92,-25.5"/>
</g>
<!-- 6612196999183062567 -->
<g id="node5" class="node">
<title>6612196999183062567</title>
<polygon fill="#e8e8e8" stroke="#000000" points="142,-40 0,-40 0,-4 142,-4 142,-40"/>
<text text-anchor="start" x="8" y="-19" font-family="Times" font-size="10.00" fill="#000000">Conv7x7 &gt; BatchNorm &gt; Relu</text>
</g>
<!-- 6612196999183062567&#45;&gt;/outputs/324 -->
<g id="edge3" class="edge">
<title>6612196999183062567&#45;&gt;/outputs/324</title>
<path fill="none" stroke="#000000" d="M142.41,-22C151.03,-22 159.64,-22 167.71,-22"/>
<polygon fill="#000000" stroke="#000000" points="167.98,-25.5 177.98,-22 167.98,-18.5 167.98,-25.5"/>
</g>
<!-- 13865845886612794130 -->
<g id="node10" class="node">
<title>13865845886612794130</title>
<polygon fill="#e8e8e8" stroke="#000000" points="489,-44 409,-44 409,0 489,0 489,-44"/>
<text text-anchor="start" x="417" y="-28" font-family="Times" font-size="10.00" fill="#000000">Residual Block</text>
<text text-anchor="start" x="474" y="-7" font-family="Times" font-size="10.00" fill="#000000">x2</text>
</g>
<!-- 7518750240727800512&#45;&gt;13865845886612794130 -->
<g id="edge5" class="edge">
<title>7518750240727800512&#45;&gt;13865845886612794130</title>
<path fill="none" stroke="#000000" d="M373.29,-22C381.54,-22 390.22,-22 398.62,-22"/>
<polygon fill="#000000" stroke="#000000" points="398.7,-25.5 408.7,-22 398.7,-18.5 398.7,-25.5"/>
</g>
<!-- 4093560529979265834 -->
<g id="node7" class="node">
<title>4093560529979265834</title>
<polygon fill="#e8e8e8" stroke="#000000" points="614,-40 525,-40 525,-4 614,-4 614,-40"/>
<text text-anchor="start" x="533.5" y="-19" font-family="Times" font-size="10.00" fill="#000000">Bottleneck Block</text>
</g>
<!-- 13454866225307126396 -->
<g id="node12" class="node">
<title>13454866225307126396</title>
<polygon fill="#e8e8e8" stroke="#000000" points="730,-44 650,-44 650,0 730,0 730,-44"/>
<text text-anchor="start" x="658" y="-28" font-family="Times" font-size="10.00" fill="#000000">Residual Block</text>
<text text-anchor="start" x="715" y="-7" font-family="Times" font-size="10.00" fill="#000000">x3</text>
</g>
<!-- 4093560529979265834&#45;&gt;13454866225307126396 -->
<g id="edge9" class="edge">
<title>4093560529979265834&#45;&gt;13454866225307126396</title>
<path fill="none" stroke="#000000" d="M614.29,-22C622.54,-22 631.22,-22 639.62,-22"/>
<polygon fill="#000000" stroke="#000000" points="639.7,-25.5 649.7,-22 639.7,-18.5 639.7,-25.5"/>
</g>
<!-- 13590463138705232227 -->
<g id="node8" class="node">
<title>13590463138705232227</title>
<polygon fill="#e8e8e8" stroke="#000000" points="855,-40 766,-40 766,-4 855,-4 855,-40"/>
<text text-anchor="start" x="774.5" y="-19" font-family="Times" font-size="10.00" fill="#000000">Bottleneck Block</text>
</g>
<!-- 689994502449560860 -->
<g id="node13" class="node">
<title>689994502449560860</title>
<polygon fill="#e8e8e8" stroke="#000000" points="971,-44 891,-44 891,0 971,0 971,-44"/>
<text text-anchor="start" x="899" y="-28" font-family="Times" font-size="10.00" fill="#000000">Residual Block</text>
<text text-anchor="start" x="956" y="-7" font-family="Times" font-size="10.00" fill="#000000">x5</text>
</g>
<!-- 13590463138705232227&#45;&gt;689994502449560860 -->
<g id="edge11" class="edge">
<title>13590463138705232227&#45;&gt;689994502449560860</title>
<path fill="none" stroke="#000000" d="M855.29,-22C863.54,-22 872.22,-22 880.62,-22"/>
<polygon fill="#000000" stroke="#000000" points="880.7,-25.5 890.7,-22 880.7,-18.5 880.7,-25.5"/>
</g>
<!-- 2033064278289035983 -->
<g id="node9" class="node">
<title>2033064278289035983</title>
<polygon fill="#e8e8e8" stroke="#000000" points="1096,-40 1007,-40 1007,-4 1096,-4 1096,-40"/>
<text text-anchor="start" x="1015.5" y="-19" font-family="Times" font-size="10.00" fill="#000000">Bottleneck Block</text>
</g>
<!-- 9551728609861711074 -->
<g id="node11" class="node">
<title>9551728609861711074</title>
<polygon fill="#e8e8e8" stroke="#000000" points="1212,-44 1132,-44 1132,0 1212,0 1212,-44"/>
<text text-anchor="start" x="1140" y="-28" font-family="Times" font-size="10.00" fill="#000000">Residual Block</text>
<text text-anchor="start" x="1197" y="-7" font-family="Times" font-size="10.00" fill="#000000">x2</text>
</g>
<!-- 2033064278289035983&#45;&gt;9551728609861711074 -->
<g id="edge7" class="edge">
<title>2033064278289035983&#45;&gt;9551728609861711074</title>
<path fill="none" stroke="#000000" d="M1096.29,-22C1104.54,-22 1113.22,-22 1121.62,-22"/>
<polygon fill="#000000" stroke="#000000" points="1121.7,-25.5 1131.7,-22 1121.7,-18.5 1121.7,-25.5"/>
</g>
<!-- 13865845886612794130&#45;&gt;4093560529979265834 -->
<g id="edge6" class="edge">
<title>13865845886612794130&#45;&gt;4093560529979265834</title>
<path fill="none" stroke="#000000" d="M489.13,-22C497.37,-22 506.19,-22 514.86,-22"/>
<polygon fill="#000000" stroke="#000000" points="514.91,-25.5 524.91,-22 514.91,-18.5 514.91,-25.5"/>
</g>
<!-- 9551728609861711074&#45;&gt;/outputs/493 -->
<g id="edge8" class="edge">
<title>9551728609861711074&#45;&gt;/outputs/493</title>
<path fill="none" stroke="#000000" d="M1212.27,-22C1220.38,-22 1229.08,-22 1237.69,-22"/>
<polygon fill="#000000" stroke="#000000" points="1237.7,-25.5 1247.7,-22 1237.7,-18.5 1237.7,-25.5"/>
</g>
<!-- 13454866225307126396&#45;&gt;13590463138705232227 -->
<g id="edge10" class="edge">
<title>13454866225307126396&#45;&gt;13590463138705232227</title>
<path fill="none" stroke="#000000" d="M730.13,-22C738.37,-22 747.19,-22 755.86,-22"/>
<polygon fill="#000000" stroke="#000000" points="755.91,-25.5 765.91,-22 755.91,-18.5 755.91,-25.5"/>
</g>
<!-- 689994502449560860&#45;&gt;2033064278289035983 -->
<g id="edge12" class="edge">
<title>689994502449560860&#45;&gt;2033064278289035983</title>
<path fill="none" stroke="#000000" d="M971.13,-22C979.37,-22 988.19,-22 996.86,-22"/>
<polygon fill="#000000" stroke="#000000" points="996.91,-25.5 1006.91,-22 996.91,-18.5 996.91,-25.5"/>
</g>
</g>
</svg>
