<?xml version="1.0" encoding="UTF-8" standalone="no"?>
<svg
   xmlns:ns1="http://wanglongqi.github.io/WriteTeX"
   xmlns:dc="http://purl.org/dc/elements/1.1/"
   xmlns:cc="http://creativecommons.org/ns#"
   xmlns:rdf="http://www.w3.org/1999/02/22-rdf-syntax-ns#"
   xmlns:svg="http://www.w3.org/2000/svg"
   xmlns="http://www.w3.org/2000/svg"
   xmlns:sodipodi="http://sodipodi.sourceforge.net/DTD/sodipodi-0.dtd"
   xmlns:inkscape="http://www.inkscape.org/namespaces/inkscape"
   width="86.525452mm"
   height="66.405502mm"
   viewBox="0 0 86.525451 66.405502"
   version="1.1"
   id="svg8"
   inkscape:version="1.0.2 (e86c870879, 2021-01-15)"
   sodipodi:docname="linear_regression_projection.svg">
  <defs
     id="defs2">
    <marker
       style="overflow:visible"
       id="marker2305"
       refX="0"
       refY="0"
       orient="auto"
       inkscape:stockid="Arrow1Mstart"
       inkscape:isstock="true">
      <path
         transform="matrix(0.4,0,0,0.4,4,0)"
         style="fill:#535353;fill-opacity:1;fill-rule:evenodd;stroke:#535353;stroke-width:1pt;stroke-opacity:1"
         d="M 0,0 5,-5 -12.5,0 5,5 Z"
         id="path2303" />
    </marker>
    <marker
       style="overflow:visible"
       id="marker2185"
       refX="0"
       refY="0"
       orient="auto"
       inkscape:stockid="Arrow1Mstart"
       inkscape:isstock="true">
      <path
         transform="matrix(0.4,0,0,0.4,4,0)"
         style="fill:#e6e6e6;fill-opacity:1;fill-rule:evenodd;stroke:#a8a8a8;stroke-width:1pt;stroke-opacity:1"
         d="M 0,0 5,-5 -12.5,0 5,5 Z"
         id="path2183" />
    </marker>
    <marker
       style="overflow:visible"
       id="Tail"
       refX="0"
       refY="0"
       orient="auto"
       inkscape:stockid="Tail"
       inkscape:isstock="true">
      <g
         transform="scale(-1.2)"
         id="g891">
        <path
           style="fill:none;fill-rule:evenodd;stroke:#000000;stroke-width:0.8;stroke-linecap:round"
           d="M -3.8048674,-3.9585227 0.54352094,0"
           id="path879" />
        <path
           style="fill:none;fill-rule:evenodd;stroke:#000000;stroke-width:0.8;stroke-linecap:round"
           d="M -1.2866832,-3.9585227 3.0617053,0"
           id="path881" />
        <path
           style="fill:none;fill-rule:evenodd;stroke:#000000;stroke-width:0.8;stroke-linecap:round"
           d="M 1.3053582,-3.9585227 5.6537466,0"
           id="path883" />
        <path
           style="fill:none;fill-rule:evenodd;stroke:#000000;stroke-width:0.8;stroke-linecap:round"
           d="M -3.8048674,4.1775838 0.54352094,0.21974226"
           id="path885" />
        <path
           style="fill:none;fill-rule:evenodd;stroke:#000000;stroke-width:0.8;stroke-linecap:round"
           d="M -1.2866832,4.1775838 3.0617053,0.21974226"
           id="path887" />
        <path
           style="fill:none;fill-rule:evenodd;stroke:#000000;stroke-width:0.8;stroke-linecap:round"
           d="M 1.3053582,4.1775838 5.6537466,0.21974226"
           id="path889" />
      </g>
    </marker>
    <marker
       style="overflow:visible"
       id="marker1929"
       refX="0"
       refY="0"
       orient="auto"
       inkscape:stockid="Arrow1Mstart"
       inkscape:isstock="true">
      <path
         transform="matrix(0.4,0,0,0.4,4,0)"
         style="fill:#e6e6e6;fill-opacity:1;fill-rule:evenodd;stroke:#a8a8a8;stroke-width:1pt;stroke-opacity:1"
         d="M 0,0 5,-5 -12.5,0 5,5 Z"
         id="path1927" />
    </marker>
    <marker
       style="overflow:visible"
       id="marker1833"
       refX="0"
       refY="0"
       orient="auto"
       inkscape:stockid="Arrow1Mstart"
       inkscape:isstock="true">
      <path
         transform="matrix(0.4,0,0,0.4,4,0)"
         style="fill:#535353;fill-opacity:1;fill-rule:evenodd;stroke:#535353;stroke-width:1pt;stroke-opacity:1"
         d="M 0,0 5,-5 -12.5,0 5,5 Z"
         id="path1831" />
    </marker>
    <marker
       style="overflow:visible"
       id="marker1417"
       refX="0"
       refY="0"
       orient="auto"
       inkscape:stockid="Arrow1Mstart"
       inkscape:isstock="true">
      <path
         transform="matrix(0.4,0,0,0.4,4,0)"
         style="fill:#535353;fill-opacity:1;fill-rule:evenodd;stroke:#535353;stroke-width:1pt;stroke-opacity:1"
         d="M 0,0 5,-5 -12.5,0 5,5 Z"
         id="path1415" />
    </marker>
    <marker
       style="overflow:visible"
       id="Arrow1Lstart"
       refX="0"
       refY="0"
       orient="auto"
       inkscape:stockid="Arrow1Lstart"
       inkscape:isstock="true">
      <path
         transform="matrix(0.8,0,0,0.8,10,0)"
         style="fill:#000000;fill-opacity:1;fill-rule:evenodd;stroke:#000000;stroke-width:1pt;stroke-opacity:1"
         d="M 0,0 5,-5 -12.5,0 5,5 Z"
         id="path843" />
    </marker>
    <marker
       style="overflow:visible"
       id="Arrow1Lend"
       refX="0"
       refY="0"
       orient="auto"
       inkscape:stockid="Arrow1Lend"
       inkscape:isstock="true">
      <path
         transform="matrix(-0.8,0,0,-0.8,-10,0)"
         style="fill:#000000;fill-opacity:1;fill-rule:evenodd;stroke:#000000;stroke-width:1pt;stroke-opacity:1"
         d="M 0,0 5,-5 -12.5,0 5,5 Z"
         id="path846" />
    </marker>
    <marker
       style="overflow:visible"
       id="Arrow1Mstart"
       refX="0"
       refY="0"
       orient="auto"
       inkscape:stockid="Arrow1Mstart"
       inkscape:isstock="true"
       inkscape:collect="always">
      <path
         transform="matrix(0.4,0,0,0.4,4,0)"
         style="fill:#535353;fill-opacity:1;fill-rule:evenodd;stroke:#535353;stroke-width:1pt;stroke-opacity:1"
         d="M 0,0 5,-5 -12.5,0 5,5 Z"
         id="path849" />
    </marker>
    <marker
       style="overflow:visible"
       id="Arrow2Lend"
       refX="0"
       refY="0"
       orient="auto"
       inkscape:stockid="Arrow2Lend"
       inkscape:isstock="true">
      <path
         transform="matrix(-1.1,0,0,-1.1,-1.1,0)"
         d="M 8.7185878,4.0337352 -2.2072895,0.01601326 8.7185884,-4.0017078 c -1.7454984,2.3720609 -1.7354408,5.6174519 -6e-7,8.035443 z"
         style="fill:#000000;fill-opacity:1;fill-rule:evenodd;stroke:#000000;stroke-width:0.625;stroke-linejoin:round;stroke-opacity:1"
         id="path864" />
    </marker>
    <marker
       style="overflow:visible"
       id="Arrow2Mend"
       refX="0"
       refY="0"
       orient="auto"
       inkscape:stockid="Arrow2Mend"
       inkscape:isstock="true">
      <path
         transform="scale(-0.6)"
         d="M 8.7185878,4.0337352 -2.2072895,0.01601326 8.7185884,-4.0017078 c -1.7454984,2.3720609 -1.7354408,5.6174519 -6e-7,8.035443 z"
         style="fill:#000000;fill-opacity:1;fill-rule:evenodd;stroke:#000000;stroke-width:0.625;stroke-linejoin:round;stroke-opacity:1"
         id="path870" />
    </marker>
    <marker
       style="overflow:visible"
       id="Arrow1Mstart-3"
       refX="0"
       refY="0"
       orient="auto"
       inkscape:stockid="Arrow1Mstart"
       inkscape:isstock="true">
      <path
         transform="matrix(0.4,0,0,0.4,4,0)"
         style="fill:#000000;fill-opacity:1;fill-rule:evenodd;stroke:#000000;stroke-width:1pt;stroke-opacity:1"
         d="M 0,0 5,-5 -12.5,0 5,5 Z"
         id="path849-6" />
    </marker>
  </defs>
  <sodipodi:namedview
     id="base"
     pagecolor="#ffffff"
     bordercolor="#666666"
     borderopacity="1.0"
     inkscape:pageopacity="0.0"
     inkscape:pageshadow="2"
     inkscape:zoom="1.4142136"
     inkscape:cx="201.05575"
     inkscape:cy="75.930818"
     inkscape:document-units="mm"
     inkscape:current-layer="layer1"
     inkscape:document-rotation="0"
     showgrid="false"
     inkscape:window-width="1920"
     inkscape:window-height="1060"
     inkscape:window-x="0"
     inkscape:window-y="0"
     inkscape:window-maximized="1"
     inkscape:snap-global="false"
     showguides="true"
     inkscape:guide-bbox="true"
     fit-margin-top="1"
     fit-margin-left="1"
     fit-margin-right="1"
     fit-margin-bottom="1"
     lock-margins="true" />
  <metadata
     id="metadata5">
    <rdf:RDF>
      <cc:Work
         rdf:about="">
        <dc:format>image/svg+xml</dc:format>
        <dc:type
           rdf:resource="http://purl.org/dc/dcmitype/StillImage" />
        <dc:title></dc:title>
      </cc:Work>
    </rdf:RDF>
  </metadata>
  <g
     inkscape:label="Layer 1"
     inkscape:groupmode="layer"
     id="layer1"
     transform="translate(-29.762929,-21.860846)">
    <rect
       style="fill:#e6e6e6;fill-opacity:1;stroke:#a8a8a8;stroke-width:0.275267;stroke-linecap:round;stroke-miterlimit:4;stroke-dasharray:1.65161, 1.65161;stroke-dashoffset:0;stroke-opacity:1;paint-order:markers fill stroke;stop-color:#000000"
       id="rect10"
       width="57.201954"
       height="42.280823"
       x="74.19944"
       y="26.262764"
       ry="0"
       transform="matrix(0.96963941,0.24453918,-0.59698055,0.80225571,0,0)" />
    <g
       id="g977"
       style="stroke:#535353;stroke-width:0.396875;stroke-miterlimit:4;stroke-dasharray:none;stroke-opacity:1">
      <path
         style="fill:none;stroke:#535353;stroke-width:0.396875;stroke-linecap:butt;stroke-linejoin:miter;stroke-miterlimit:4;stroke-dasharray:none;stroke-opacity:1"
         d="M 96.862303,60.266921 94.1141,60.6636 v 3.146999"
         id="path974" />
    </g>
    <path
       style="font-variation-settings:normal;opacity:1;vector-effect:none;fill:none;fill-opacity:1;stroke:#535353;stroke-width:0.529167;stroke-linecap:round;stroke-linejoin:miter;stroke-miterlimit:4;stroke-dasharray:none;stroke-dashoffset:0;stroke-opacity:1;marker-start:url(#marker1417);stop-color:#000000;stop-opacity:1"
       d="M 95.834735,63.593987 31.02991,73.136143"
       id="path835" />
    <path
       style="fill:none;stroke:#535353;stroke-width:0.264583;stroke-linecap:round;stroke-linejoin:miter;stroke-miterlimit:4;stroke-dasharray:1.05833, 0.529167;stroke-dashoffset:0.396875;stroke-opacity:1"
       d="M 96.801285,63.328369 V 25.451294"
       id="path839" />
    <path
       style="fill:none;stroke:#535353;stroke-width:0.529167;stroke-linecap:round;stroke-linejoin:miter;stroke-miterlimit:4;stroke-dasharray:none;stroke-opacity:1;marker-start:url(#Arrow1Mstart)"
       d="M 95.944725,25.921807 31.027512,73.134153"
       id="path841" />
    <g
       ns1:text="Column space of $\mathbf{X}$"
       transform="matrix(0.38004317,0.0978624,-0.0978624,0.38004317,-2.3797276,18.152669)"
       id="g1934"
       style="fill:#424242;fill-opacity:1;stroke-width:2.54815">
      <g
         id="g1932"
         style="fill:#424242;fill-opacity:1;stroke-width:2.54815">
        <g
           style="fill:#000000;fill-opacity:1;stroke-width:2.54815"
           id="g1907">
          <path
             style="fill:#000000;fill-opacity:1;stroke:none;stroke-width:2.54815"
             d="M 6.625,-2.328125 C 6.625,-2.421875 6.625,-2.5 6.5,-2.5 6.390625,-2.5 6.390625,-2.4375 6.375,-2.328125 6.296875,-0.90625 5.234375,-0.09375 4.140625,-0.09375 c -0.609375,0 -2.5625,-0.328125 -2.5625,-3.3125 0,-2.96875 1.953125,-3.3125 2.5625,-3.3125 1.078125,0 1.96875,0.90625 2.171875,2.359375 C 6.328125,-4.21875 6.328125,-4.1875 6.46875,-4.1875 6.625,-4.1875 6.625,-4.21875 6.625,-4.421875 V -6.78125 c 0,-0.171875 0,-0.25 -0.109375,-0.25 -0.03125,0 -0.078125,0 -0.15625,0.125 l -0.5,0.734375 C 5.5,-6.53125 4.984375,-7.03125 4.03125,-7.03125 c -1.875,0 -3.46875,1.59375 -3.46875,3.625 0,2.0625 1.609375,3.625 3.46875,3.625 1.625,0 2.59375,-1.390625 2.59375,-2.546875 z m 0,0"
             transform="translate(178.585,110.99)"
             id="path1895" />
          <path
             style="fill:#000000;fill-opacity:1;stroke:none;stroke-width:2.54815"
             d="M 4.6875,-2.140625 C 4.6875,-3.40625 3.703125,-4.46875 2.5,-4.46875 c -1.25,0 -2.21875,1.09375 -2.21875,2.328125 0,1.296875 1.03125,2.25 2.203125,2.25 1.203125,0 2.203125,-0.984375 2.203125,-2.25 z M 3.875,-2.21875 c 0,0.359375 0,0.90625 -0.21875,1.34375 -0.234375,0.453125 -0.671875,0.734375 -1.15625,0.734375 -0.4375,0 -0.875,-0.203125 -1.140625,-0.671875 -0.25,-0.4375 -0.25,-1.046875 -0.25,-1.40625 0,-0.390625 0,-0.921875 0.234375,-1.359375 C 1.609375,-4.03125 2.078125,-4.25 2.484375,-4.25 c 0.4375,0 0.859375,0.21875 1.125,0.65625 0.265625,0.421875 0.265625,1 0.265625,1.375 z m 0,0"
             transform="translate(185.778,110.99)"
             id="path1897" />
          <path
             style="fill:#000000;fill-opacity:1;stroke:none;stroke-width:2.54815"
             d="m 2.546875,0 v -0.3125 c -0.671875,0 -0.78125,0 -0.78125,-0.4375 V -6.921875 L 0.328125,-6.8125 V -6.5 c 0.703125,0 0.78125,0.0625 0.78125,0.5625 V -0.75 c 0,0.4375 -0.109375,0.4375 -0.78125,0.4375 V 0 L 1.4375,-0.03125 Z m 0,0"
             transform="translate(190.7593,110.99)"
             id="path1899" />
          <path
             style="fill:#000000;fill-opacity:1;stroke:none;stroke-width:2.54815"
             d="M 5.328125,0 V -0.3125 C 4.640625,-0.3125 4.5625,-0.375 4.5625,-0.875 v -3.53125 l -1.46875,0.109375 v 0.3125 c 0.6875,0 0.78125,0.0625 0.78125,0.5625 v 1.765625 c 0,0.875 -0.484375,1.546875 -1.21875,1.546875 -0.828125,0 -0.875,-0.46875 -0.875,-0.984375 v -3.3125 L 0.3125,-4.296875 v 0.3125 c 0.78125,0 0.78125,0.03125 0.78125,0.90625 v 1.5 c 0,0.78125 0,1.6875 1.515625,1.6875 0.5625,0 1,-0.28125 1.28125,-0.890625 v 0.890625 z m 0,0"
             transform="translate(193.5289,110.99)"
             id="path1901" />
          <path
             style="fill:#000000;fill-opacity:1;stroke:none;stroke-width:2.54815"
             d="m 8.109375,0 v -0.3125 c -0.515625,0 -0.765625,0 -0.78125,-0.296875 v -1.90625 c 0,-0.859375 0,-1.15625 -0.3125,-1.515625 -0.140625,-0.171875 -0.46875,-0.375 -1.046875,-0.375 -0.828125,0 -1.28125,0.59375 -1.4375,0.984375 C 4.390625,-4.296875 3.65625,-4.40625 3.203125,-4.40625 2.46875,-4.40625 2,-3.984375 1.71875,-3.359375 V -4.40625 L 0.3125,-4.296875 v 0.3125 c 0.703125,0 0.78125,0.0625 0.78125,0.5625 V -0.75 c 0,0.4375 -0.109375,0.4375 -0.78125,0.4375 V 0 L 1.453125,-0.03125 2.5625,0 v -0.3125 c -0.671875,0 -0.78125,0 -0.78125,-0.4375 V -2.59375 C 1.78125,-3.625 2.5,-4.1875 3.125,-4.1875 c 0.640625,0 0.75,0.53125 0.75,1.109375 V -0.75 c 0,0.4375 -0.109375,0.4375 -0.78125,0.4375 V 0 L 4.21875,-0.03125 5.328125,0 v -0.3125 c -0.65625,0 -0.765625,0 -0.765625,-0.4375 v -1.84375 c 0,-1.03125 0.703125,-1.59375 1.34375,-1.59375 0.625,0 0.734375,0.53125 0.734375,1.109375 V -0.75 c 0,0.4375 -0.109375,0.4375 -0.78125,0.4375 V 0 l 1.125,-0.03125 z m 0,0"
             transform="translate(199.06811,110.99)"
             id="path1903" />
          <path
             style="fill:#000000;fill-opacity:1;stroke:none;stroke-width:2.54815"
             d="m 5.328125,0 v -0.3125 c -0.515625,0 -0.765625,0 -0.765625,-0.296875 v -1.90625 c 0,-0.859375 0,-1.15625 -0.3125,-1.515625 -0.140625,-0.171875 -0.46875,-0.375 -1.046875,-0.375 C 2.46875,-4.40625 2,-3.984375 1.71875,-3.359375 V -4.40625 L 0.3125,-4.296875 v 0.3125 c 0.703125,0 0.78125,0.0625 0.78125,0.5625 V -0.75 c 0,0.4375 -0.109375,0.4375 -0.78125,0.4375 V 0 L 1.453125,-0.03125 2.5625,0 v -0.3125 c -0.671875,0 -0.78125,0 -0.78125,-0.4375 V -2.59375 C 1.78125,-3.625 2.5,-4.1875 3.125,-4.1875 c 0.640625,0 0.75,0.53125 0.75,1.109375 V -0.75 c 0,0.4375 -0.109375,0.4375 -0.78125,0.4375 V 0 l 1.125,-0.03125 z m 0,0"
             transform="translate(207.36695,110.99)"
             id="path1905" />
        </g>
        <g
           style="fill:#000000;fill-opacity:1;stroke-width:2.54815"
           id="g1919">
          <path
             style="fill:#000000;fill-opacity:1;stroke:none;stroke-width:2.54815"
             d="m 3.59375,-1.28125 c 0,-0.515625 -0.296875,-0.828125 -0.421875,-0.9375 C 2.84375,-2.546875 2.453125,-2.625 2.03125,-2.703125 1.46875,-2.8125 0.8125,-2.9375 0.8125,-3.515625 c 0,-0.359375 0.25,-0.765625 1.109375,-0.765625 1.09375,0 1.15625,0.90625 1.171875,1.203125 0,0.09375 0.109375,0.09375 0.109375,0.09375 0.140625,0 0.140625,-0.046875 0.140625,-0.234375 v -1.015625 c 0,-0.15625 0,-0.234375 -0.109375,-0.234375 -0.046875,0 -0.078125,0 -0.203125,0.125 -0.03125,0.03125 -0.125,0.125 -0.171875,0.15625 -0.375,-0.28125 -0.78125,-0.28125 -0.9375,-0.28125 -1.21875,0 -1.59375,0.671875 -1.59375,1.234375 0,0.34375 0.15625,0.625 0.421875,0.84375 0.328125,0.25 0.609375,0.3125 1.328125,0.453125 0.21875,0.046875 1.03125,0.203125 1.03125,0.921875 0,0.5 -0.34375,0.90625 -1.125,0.90625 -0.84375,0 -1.203125,-0.5625 -1.390625,-1.421875 C 0.5625,-1.65625 0.5625,-1.6875 0.453125,-1.6875 c -0.125,0 -0.125,0.0625 -0.125,0.234375 V -0.125 c 0,0.171875 0,0.234375 0.109375,0.234375 0.046875,0 0.0625,-0.015625 0.25,-0.203125 0.015625,-0.015625 0.015625,-0.03125 0.203125,-0.21875 0.4375,0.40625 0.890625,0.421875 1.09375,0.421875 1.140625,0 1.609375,-0.671875 1.609375,-1.390625 z m 0,0"
             transform="translate(216.21374,110.99)"
             id="path1909" />
          <path
             style="fill:#000000;fill-opacity:1;stroke:none;stroke-width:2.54815"
             d="m 5.1875,-2.15625 c 0,-1.265625 -0.953125,-2.25 -2.078125,-2.25 -0.78125,0 -1.203125,0.4375 -1.390625,0.65625 v -0.65625 l -1.4375,0.109375 v 0.3125 c 0.703125,0 0.78125,0.0625 0.78125,0.5 v 4.65625 C 1.0625,1.625 0.953125,1.625 0.28125,1.625 v 0.3125 l 1.109375,-0.03125 1.125,0.03125 V 1.625 C 1.859375,1.625 1.75,1.625 1.75,1.171875 V -0.59375 c 0.046875,0.171875 0.46875,0.703125 1.21875,0.703125 1.1875,0 2.21875,-0.984375 2.21875,-2.265625 z m -0.828125,0 c 0,1.203125 -0.6875,2.046875 -1.421875,2.046875 -0.40625,0 -0.78125,-0.203125 -1.046875,-0.609375 C 1.75,-0.921875 1.75,-0.9375 1.75,-1.140625 v -2.21875 C 2.03125,-3.875 2.515625,-4.15625 3.03125,-4.15625 c 0.734375,0 1.328125,0.875 1.328125,2 z m 0,0"
             transform="translate(220.139,110.99)"
             id="path1911" />
          <path
             style="fill:#000000;fill-opacity:1;stroke:none;stroke-width:2.54815"
             d="m 4.8125,-0.890625 v -0.5625 h -0.25 v 0.5625 C 4.5625,-0.3125 4.3125,-0.25 4.203125,-0.25 3.875,-0.25 3.84375,-0.703125 3.84375,-0.75 v -1.984375 c 0,-0.421875 0,-0.8125 -0.359375,-1.1875 C 3.09375,-4.3125 2.59375,-4.46875 2.109375,-4.46875 c -0.8125,0 -1.5,0.46875 -1.5,1.125 0,0.296875 0.203125,0.46875 0.453125,0.46875 0.28125,0 0.46875,-0.203125 0.46875,-0.453125 0,-0.125 -0.0625,-0.453125 -0.515625,-0.453125 C 1.28125,-4.140625 1.78125,-4.25 2.09375,-4.25 c 0.484375,0 1.0625,0.390625 1.0625,1.28125 v 0.359375 C 2.640625,-2.578125 1.9375,-2.546875 1.3125,-2.25 c -0.75,0.34375 -1,0.859375 -1,1.296875 0,0.8125 0.96875,1.0625 1.59375,1.0625 0.671875,0 1.125,-0.40625 1.3125,-0.859375 0.046875,0.390625 0.3125,0.8125 0.78125,0.8125 0.203125,0 0.8125,-0.140625 0.8125,-0.953125 z m -1.65625,-0.5 c 0,0.9375 -0.71875,1.28125 -1.171875,1.28125 -0.484375,0 -0.890625,-0.34375 -0.890625,-0.84375 0,-0.546875 0.40625,-1.375 2.0625,-1.4375 z m 0,0"
             transform="translate(225.67821,110.99)"
             id="path1913" />
          <path
             style="fill:#000000;fill-opacity:1;stroke:none;stroke-width:2.54815"
             d="M 4.140625,-1.1875 C 4.140625,-1.28125 4.03125,-1.28125 4,-1.28125 c -0.078125,0 -0.109375,0.03125 -0.125,0.09375 -0.28125,0.921875 -0.9375,1.046875 -1.296875,1.046875 -0.53125,0 -1.40625,-0.421875 -1.40625,-2.03125 0,-1.625 0.8125,-2.046875 1.34375,-2.046875 0.09375,0 0.71875,0.015625 1.0625,0.375 -0.40625,0.03125 -0.46875,0.328125 -0.46875,0.453125 0,0.265625 0.1875,0.453125 0.453125,0.453125 0.265625,0 0.46875,-0.15625 0.46875,-0.46875 0,-0.671875 -0.765625,-1.0625 -1.53125,-1.0625 -1.25,0 -2.15625,1.078125 -2.15625,2.3125 0,1.28125 0.984375,2.265625 2.140625,2.265625 1.328125,0 1.65625,-1.203125 1.65625,-1.296875 z m 0,0"
             transform="translate(230.65951,110.99)"
             id="path1915" />
          <path
             style="fill:#000000;fill-opacity:1;stroke:none;stroke-width:2.54815"
             d="m 4.140625,-1.1875 c 0,-0.09375 -0.078125,-0.125 -0.140625,-0.125 -0.078125,0 -0.109375,0.0625 -0.125,0.140625 -0.34375,1.03125 -1.25,1.03125 -1.34375,1.03125 -0.5,0 -0.890625,-0.296875 -1.125,-0.671875 -0.296875,-0.46875 -0.296875,-1.125 -0.296875,-1.484375 h 2.78125 c 0.21875,0 0.25,0 0.25,-0.21875 0,-0.984375 -0.546875,-1.953125 -1.78125,-1.953125 -1.15625,0 -2.078125,1.03125 -2.078125,2.28125 0,1.328125 1.046875,2.296875 2.1875,2.296875 C 3.6875,0.109375 4.140625,-1 4.140625,-1.1875 Z m -0.65625,-1.328125 h -2.375 C 1.171875,-4 2.015625,-4.25 2.359375,-4.25 c 1.015625,0 1.125,1.34375 1.125,1.734375 z m 0,0"
             transform="translate(235.0829,110.99)"
             id="path1917" />
        </g>
        <g
           style="fill:#000000;fill-opacity:1;stroke-width:2.54815"
           id="g1925">
          <path
             style="fill:#000000;fill-opacity:1;stroke:none;stroke-width:2.54815"
             d="M 4.6875,-2.140625 C 4.6875,-3.40625 3.703125,-4.46875 2.5,-4.46875 c -1.25,0 -2.21875,1.09375 -2.21875,2.328125 0,1.296875 1.03125,2.25 2.203125,2.25 1.203125,0 2.203125,-0.984375 2.203125,-2.25 z M 3.875,-2.21875 c 0,0.359375 0,0.90625 -0.21875,1.34375 -0.234375,0.453125 -0.671875,0.734375 -1.15625,0.734375 -0.4375,0 -0.875,-0.203125 -1.140625,-0.671875 -0.25,-0.4375 -0.25,-1.046875 -0.25,-1.40625 0,-0.390625 0,-0.921875 0.234375,-1.359375 C 1.609375,-4.03125 2.078125,-4.25 2.484375,-4.25 c 0.4375,0 0.859375,0.21875 1.125,0.65625 0.265625,0.421875 0.265625,1 0.265625,1.375 z m 0,0"
             transform="translate(242.82384,110.99)"
             id="path1921" />
          <path
             style="fill:#000000;fill-opacity:1;stroke:none;stroke-width:2.54815"
             d="m 3.5625,-6.328125 c 0,-0.375 -0.375,-0.703125 -0.90625,-0.703125 -0.6875,0 -1.546875,0.53125 -1.546875,1.59375 v 1.140625 h -0.78125 v 0.3125 h 0.78125 V -0.75 C 1.109375,-0.3125 1,-0.3125 0.34375,-0.3125 V 0 l 1.125,-0.03125 c 0.40625,0 0.875,0 1.265625,0.03125 V -0.3125 H 2.53125 c -0.734375,0 -0.75,-0.109375 -0.75,-0.46875 v -3.203125 h 1.125 v -0.3125 H 1.75 v -1.15625 c 0,-0.875 0.46875,-1.359375 0.90625,-1.359375 0.03125,0 0.1875,0 0.328125,0.078125 C 2.875,-6.703125 2.6875,-6.5625 2.6875,-6.3125 c 0,0.21875 0.15625,0.421875 0.4375,0.421875 0.28125,0 0.4375,-0.203125 0.4375,-0.4375 z m 0,0"
             transform="translate(247.80514,110.99)"
             id="path1923" />
        </g>
        <g
           style="fill:#000000;fill-opacity:1;stroke-width:2.54815"
           id="g1930">
          <path
             style="fill:#000000;fill-opacity:1;stroke:none;stroke-width:2.54815"
             d="M 4.828125,-3.953125 6.5,-6.15625 C 6.609375,-6.296875 6.625,-6.3125 6.96875,-6.34375 7.203125,-6.375 7.265625,-6.375 7.546875,-6.375 h 0.28125 V -6.84375 C 7.421875,-6.8125 6.921875,-6.8125 6.5,-6.8125 c -0.390625,0 -1.15625,0 -1.515625,-0.03125 V -6.375 c 0.171875,0 0.5625,0 0.921875,0.109375 -0.015625,0.03125 -0.0625,0.078125 -0.078125,0.109375 L 4.5,-4.40625 3.078125,-6.375 H 3.90625 V -6.84375 C 3.5,-6.8125 2.546875,-6.8125 2.109375,-6.8125 c -0.40625,0 -1.265625,0 -1.625,-0.03125 V -6.375 H 1.46875 l 2.203125,3.0625 -2,2.640625 C 1.578125,-0.546875 1.5625,-0.53125 1.234375,-0.5 1.03125,-0.484375 0.828125,-0.46875 0.625,-0.46875 H 0.34375 V 0 C 0.75,-0.03125 1.25,-0.03125 1.671875,-0.03125 c 0.390625,0 1.15625,0 1.515625,0.03125 v -0.46875 c -0.171875,0 -0.5625,0 -0.921875,-0.109375 C 2.28125,-0.59375 2.328125,-0.65625 2.359375,-0.6875 L 4,-2.875 5.734375,-0.46875 H 4.90625 V 0 c 0.40625,-0.03125 1.359375,-0.03125 1.796875,-0.03125 0.40625,0 1.265625,0 1.625,0.03125 V -0.46875 H 7.34375 Z m 0,0"
             transform="translate(254.181,110.99)"
             id="path1928" />
        </g>
      </g>
    </g>
    <g
       ns1:text="$\hat{\mathbf{y}} = \mathbf{X}\theta$"
       transform="matrix(0.59974337,-0.08787203,0.08787203,0.59974337,-41.607916,23.238546)"
       id="g1466"
       style="stroke-width:1.64976">
      <g
         id="surface1"
         style="stroke-width:1.64976">
        <g
           style="fill:#000000;fill-opacity:1;stroke-width:1.64976"
           id="g1447">
          <path
             style="stroke:none;stroke-width:1.64976"
             d="m 2.921875,-5.546875 h 0.59375 L 2.21875,-7.390625 H 1.25 l -1.265625,1.84375 H 0.5625 L 1.75,-6.5625 Z m 0,0"
             transform="translate(179.495,110.99)"
             id="path1445" />
        </g>
        <g
           style="fill:#000000;fill-opacity:1;stroke-width:1.64976"
           id="g1451">
          <path
             style="stroke:none;stroke-width:1.64976"
             d="m 5.03125,-3.953125 v -0.46875 C 4.78125,-4.40625 4.5,-4.390625 4.25,-4.390625 c -0.328125,0 -0.78125,-0.03125 -0.90625,-0.03125 v 0.46875 c 0,0 0.515625,0 0.515625,0.109375 L 3.8125,-3.703125 2.953125,-1.5 2,-3.953125 h 0.5625 v -0.46875 l -1.234375,0.03125 -1.109375,-0.03125 v 0.46875 h 0.625 L 2.375,0 C 2.296875,0.21875 2.046875,0.875 1.9375,1.078125 1.65625,1.5625 1.296875,1.640625 1.125,1.640625 1.03125,1.640625 1,1.625 0.96875,1.609375 1.109375,1.5625 1.328125,1.40625 1.328125,1.0625 1.328125,0.734375 1.09375,0.5 0.75,0.5 0.484375,0.5 0.1875,0.6875 0.1875,1.078125 0.1875,1.546875 0.5625,2 1.109375,2 1.875,2 2.375,1.3125 2.546875,0.84375 L 4.3125,-3.71875 c 0.078125,-0.171875 0.09375,-0.234375 0.71875,-0.234375 z m 0,0"
             transform="translate(178.585,110.99)"
             id="path1449" />
        </g>
        <g
           style="fill:#000000;fill-opacity:1;stroke-width:1.64976"
           id="g1455">
          <path
             style="stroke:none;stroke-width:1.64976"
             d="m 0.640625,-3.453125 h 5.375 v -0.59375 h -5.375 z m 0,2.125 h 5.375 v -0.59375 h -5.375 z m 0,0"
             transform="translate(186.66,110.99)"
             id="path1453" />
        </g>
        <g
           style="fill:#000000;fill-opacity:1;stroke-width:1.64976"
           id="g1459">
          <path
             style="stroke:none;stroke-width:1.64976"
             d="M 7.25,0 V -0.46875 H 6.40625 L 4.25,-4 5.625,-6.15625 C 5.734375,-6.296875 5.734375,-6.3125 6.046875,-6.34375 6.28125,-6.375 6.3125,-6.375 6.578125,-6.375 H 6.8125 V -6.84375 L 5.609375,-6.8125 c -0.390625,0 -1.03125,0 -1.375,-0.03125 V -6.375 c 0.140625,0 0.515625,0 0.828125,0.109375 L 5,-6.140625 3.9375,-4.5 2.796875,-6.375 H 3.53125 V -6.84375 C 3.171875,-6.8125 2.296875,-6.8125 1.890625,-6.8125 c -0.390625,0 -1.109375,0 -1.46875,-0.03125 V -6.375 h 0.84375 l 1.890625,3.09375 -1.75,2.71875 c -0.25,0.09375 -0.84375,0.09375 -0.875,0.09375 H 0.296875 V 0 L 1.5,-0.03125 c 0.390625,0 1.015625,0 1.375,0.03125 v -0.46875 c -0.171875,0 -0.53125,0 -0.828125,-0.109375 l 1.40625,-2.203125 1.40625,2.3125 H 4.140625 V 0 c 0.359375,-0.03125 1.21875,-0.03125 1.625,-0.03125 0.40625,0 1.109375,0 1.484375,0.03125 z m 0,0"
             transform="translate(196.092,110.99)"
             id="path1457" />
        </g>
        <g
           style="fill:#000000;fill-opacity:1;stroke-width:1.64976"
           id="g1463">
          <path
             style="stroke:none;stroke-width:1.64976"
             d="M 5.71875,-5.03125 C 5.71875,-6.15625 5.390625,-7 4.109375,-7 c -2.578125,0 -3.40625,2.890625 -3.40625,5.015625 0,1.1875 0.359375,2.140625 1.71875,2.140625 2.359375,0 3.296875,-3.3125 3.296875,-5.1875 z m -0.75,-0.125 c 0,0.453125 -0.0625,0.90625 -0.140625,1.359375 h -3.15625 c 0.234375,-1.03125 0.96875,-2.9375 2.265625,-2.9375 0.859375,0 1.03125,0.90625 1.03125,1.578125 z m -0.1875,1.671875 C 4.546875,-2.359375 4,-0.125 2.578125,-0.125 1.5625,-0.125 1.46875,-1.25 1.46875,-2.03125 1.46875,-2.515625 1.5625,-3 1.625,-3.484375 Z m 0,0"
             transform="translate(203.719,110.99)"
             id="path1461" />
        </g>
      </g>
    </g>
    <g
       ns1:text="$\mathbf{y}$"
       transform="matrix(0.5266831,-0.38962572,0.38962572,0.5266831,-49.740098,38.274829)"
       id="g1563"
       style="stroke-width:1.5264">
      <g
         id="g1561"
         style="stroke-width:1.5264">
        <g
           style="fill:#000000;fill-opacity:1;stroke-width:1.5264"
           id="g1559">
          <path
             style="stroke:none;stroke-width:1.5264"
             d="m 5.03125,-3.953125 v -0.46875 C 4.78125,-4.40625 4.5,-4.390625 4.25,-4.390625 c -0.328125,0 -0.78125,-0.03125 -0.90625,-0.03125 v 0.46875 c 0,0 0.515625,0 0.515625,0.109375 L 3.8125,-3.703125 2.953125,-1.5 2,-3.953125 h 0.5625 v -0.46875 l -1.234375,0.03125 -1.109375,-0.03125 v 0.46875 h 0.625 L 2.375,0 C 2.296875,0.21875 2.046875,0.875 1.9375,1.078125 1.65625,1.5625 1.296875,1.640625 1.125,1.640625 1.03125,1.640625 1,1.625 0.96875,1.609375 1.109375,1.5625 1.328125,1.40625 1.328125,1.0625 1.328125,0.734375 1.09375,0.5 0.75,0.5 0.484375,0.5 0.1875,0.6875 0.1875,1.078125 0.1875,1.546875 0.5625,2 1.109375,2 1.875,2 2.375,1.3125 2.546875,0.84375 L 4.3125,-3.71875 c 0.078125,-0.171875 0.09375,-0.234375 0.71875,-0.234375 z m 0,0"
             transform="translate(178.585,110.99)"
             id="path1557" />
        </g>
      </g>
    </g>
    <g
       ns1:text="$\mathbf{y} - \hat{\mathbf{y}}$"
       transform="matrix(0.66579332,0,0,0.66579332,-17.881104,-27.712048)"
       id="g1664"
       style="stroke-width:1.50197">
      <g
         id="g1662"
         style="stroke-width:1.50197">
        <g
           style="fill:#000000;fill-opacity:1;stroke-width:1.50197"
           id="g1648">
          <path
             style="stroke:none;stroke-width:1.50197"
             d="m 5.03125,-3.953125 v -0.46875 C 4.78125,-4.40625 4.5,-4.390625 4.25,-4.390625 c -0.328125,0 -0.78125,-0.03125 -0.90625,-0.03125 v 0.46875 c 0,0 0.515625,0 0.515625,0.109375 L 3.8125,-3.703125 2.953125,-1.5 2,-3.953125 h 0.5625 v -0.46875 l -1.234375,0.03125 -1.109375,-0.03125 v 0.46875 h 0.625 L 2.375,0 C 2.296875,0.21875 2.046875,0.875 1.9375,1.078125 1.65625,1.5625 1.296875,1.640625 1.125,1.640625 1.03125,1.640625 1,1.625 0.96875,1.609375 1.109375,1.5625 1.328125,1.40625 1.328125,1.0625 1.328125,0.734375 1.09375,0.5 0.75,0.5 0.484375,0.5 0.1875,0.6875 0.1875,1.078125 0.1875,1.546875 0.5625,2 1.109375,2 1.875,2 2.375,1.3125 2.546875,0.84375 L 4.3125,-3.71875 c 0.078125,-0.171875 0.09375,-0.234375 0.71875,-0.234375 z m 0,0"
             transform="translate(178.585,110.99)"
             id="path1646" />
        </g>
        <g
           style="fill:#000000;fill-opacity:1;stroke-width:1.50197"
           id="g1652">
          <path
             style="stroke:none;stroke-width:1.50197"
             d="m 6.015625,-2.40625 v -0.578125 h -5.375 v 0.578125 z m 0,0"
             transform="translate(186.106,110.99)"
             id="path1650" />
        </g>
        <g
           style="fill:#000000;fill-opacity:1;stroke-width:1.50197"
           id="g1656">
          <path
             style="stroke:none;stroke-width:1.50197"
             d="m 2.921875,-5.546875 h 0.59375 L 2.21875,-7.390625 H 1.25 l -1.265625,1.84375 H 0.5625 L 1.75,-6.5625 Z m 0,0"
             transform="translate(195.88927,110.99)"
             id="path1654" />
        </g>
        <g
           style="fill:#000000;fill-opacity:1;stroke-width:1.50197"
           id="g1660">
          <path
             style="stroke:none;stroke-width:1.50197"
             d="m 5.03125,-3.953125 v -0.46875 C 4.78125,-4.40625 4.5,-4.390625 4.25,-4.390625 c -0.328125,0 -0.78125,-0.03125 -0.90625,-0.03125 v 0.46875 c 0,0 0.515625,0 0.515625,0.109375 L 3.8125,-3.703125 2.953125,-1.5 2,-3.953125 h 0.5625 v -0.46875 l -1.234375,0.03125 -1.109375,-0.03125 v 0.46875 h 0.625 L 2.375,0 C 2.296875,0.21875 2.046875,0.875 1.9375,1.078125 1.65625,1.5625 1.296875,1.640625 1.125,1.640625 1.03125,1.640625 1,1.625 0.96875,1.609375 1.109375,1.5625 1.328125,1.40625 1.328125,1.0625 1.328125,0.734375 1.09375,0.5 0.75,0.5 0.484375,0.5 0.1875,0.6875 0.1875,1.078125 0.1875,1.546875 0.5625,2 1.109375,2 1.875,2 2.375,1.3125 2.546875,0.84375 L 4.3125,-3.71875 c 0.078125,-0.171875 0.09375,-0.234375 0.71875,-0.234375 z m 0,0"
             transform="translate(194.985,110.99)"
             id="path1658" />
        </g>
      </g>
    </g>
  </g>
</svg>
